<?xml version="1.0" encoding="UTF-8"?>
<svg id="dot" xmlns="http://www.w3.org/2000/svg" version="1.1" viewBox="0 0 85.04 85.04">
  <!-- Generator: Adobe Illustrator 29.8.2, SVG Export Plug-In . SVG Version: 2.1.1 Build 3)  -->
  <defs>
    <style>
      .st0 {
        fill: #dee0d5;
      }

      .st1 {
        fill: #e645a2;
      }

      .st2 {
        fill: #c7ccaf;
      }
    </style>
  </defs>
  <path class="st0" d="M11.51,27.28c0-.88.25-1.01,1.39-1.01,1.39,0,3.53.38,16.64.38,8.57,0,11.85-.38,13.24-.38,1.01,0,1.26.25,1.26,1.01v2.52c0,.76-.12,1.26-.88,1.26h-1.64c-1.64,0-3.28.76-3.28,2.14,0,2.27,3.78,12.36,4.67,14.62l5.42,13.62h.76c1.01-2.14,3.01-6.61,5.54-13.55,1.13-3.15-.88-5.67-3.15-5.67h-2.27c-.38,0-.5-.63-.5-1.26v-2.52c0-.76.25-1.01.76-1.01,1.76,0,4.54.38,12.23.38,6.55,0,9.58-.38,10.72-.38,1.01,0,1.13.13,1.13,1.14v2.39c0,.88,0,1.26-.63,1.26h-2.14c-1.76,0-4.29.25-5.8,1.89-2.27,2.52-3.27,2.58-6.17,8.63-1.51,3.28-11.47,24.71-12.23,26.22-.76,1.39-1.51,2.52-3.28,2.52-1.64,0-2.52-1.26-3.66-3.15-1.26-1.89-11.47-24.46-11.98-25.72-.51-1.26-6.43-15.38-7.31-16.89-2.14-3.53-3.28-4.67-5.55-4.67h-2.52c-.63,0-.75-.5-.75-1.26v-2.52Z"/>
  <rect class="st2" x="41.65" y="-2.91" width="2.73" height="37.46" transform="translate(14.55 51.74) rotate(-71.8)"/>
  <path class="st1" d="M31.96,10.11c0,3.63-2.94,6.57-6.57,6.57s-6.57-2.94-6.57-6.57,2.94-6.57,6.57-6.57,6.57,2.94,6.57,6.57Z"/>
  <path class="st1" d="M67.69,21.67c0,3.63-2.94,6.57-6.57,6.57s-6.57-2.94-6.57-6.57,2.94-6.57,6.57-6.57,6.57,2.94,6.57,6.57Z"/>
</svg>